# xmcd
#
# Track frame offsets:
#	150
#	14804
#	33798
#	49710
#	68949
#	84400
#	102829
#	118083
#	135007
#	154317
#	172916
#	194469
#
# Disc length: 2835 seconds
# Revision: 1
# Processed by: cddbd v1.5.2PL0 Copyright (c) Steve Scherf et al.
# Submitted via: dBpowerAMP V12.0
#
DISCID=960b110c
DTITLE=LeeLee Robert - Jewel Of The West
DYEAR=2014
DGENRE=Country
TTITLE0=Buckaroo Man
TTITLE1=Wyoming: Jewel of the West
TTITLE2=Hungry Boot Café
TTITLE3=The Outlaw Massai
TTITLE4=Paniolo
TTITLE5=Cowboy Man  Duet with Marvin O'Dell
TTITLE6=Back to the Ranch
TTITLE7=The Scat Yodel
TTITLE8=I Loved You Before
TTITLE9=In Love With Montana
TTITLE10=Abby Kane
TTITLE11=Blue Canyon
EXTD=
EXTT0=
EXTT1=
EXTT2=
EXTT3=
EXTT4=
EXTT5=
EXTT6=
EXTT7=
EXTT8=
EXTT9=
EXTT10=
EXTT11=
PLAYORDER=
